# xmcd
#
# Track frame offsets:
# 150
# 18720
# 33067
# 55387
# 65742
# 84935
# 103595
# 124365
# 140452
# 155502
# 175782
# 189512
# 203842
# 222145
# 233787
#
# Disc length: 3311 seconds
#
#
# Revision: 5
# Processed by: cddbd v1.5.2PL0 Copyright (c) Steve Scherf et al.
# Submitted via: FreeRIP 2.60 
#
DISCID=d00ced0f
DTITLE=Ray Charles - Blues Is My Middle Name
DYEAR=1900
DGENRE=Blues
TTITLE0=Goin' Down Slow
TTITLE1=Alone In The City
TTITLE2=Now She's Gone
TTITLE3=Rockin' Chair Blues
TTITLE4=A Sentimental Blues
TTITLE5=Can Anyone Ask For More
TTITLE6=Let's Have A Ball
TTITLE7=This Love Of Mine
TTITLE8=Can't You See Darling
TTITLE9=If I Give You My Love
TTITLE10=Sitting On Top Of The World
TTITLE11=Kiss Me Baby
TTITLE12=I'm Gonna Drown Myself
TTITLE13=Snow Is Fallin'
TTITLE14=Blues Is My Middle Name
EXTD=ID3G: 0
EXTT0=
EXTT1=
EXTT2=
EXTT3=
EXTT4=
EXTT5=
EXTT6=
EXTT7=
EXTT8=
EXTT9=
EXTT10=
EXTT11=
EXTT12=
EXTT13=
EXTT14=
PLAYORDER=
